<svg width="35" height="31" viewBox="0 0 35 31" fill="none" xmlns="http://www.w3.org/2000/svg">
<path d="M17.5039 7.38769C12.5379 7.38769 8.53235 10.8591 8.53235 15.1628C8.53235 19.4665 12.5379 22.9379 17.5039 22.9379C22.4699 22.9379 26.4755 19.4665 26.4755 15.1628C26.4755 10.8591 22.4699 7.38769 17.5039 7.38769ZM17.5039 20.2176C14.2948 20.2176 11.6712 17.9507 11.6712 15.1628C11.6712 12.3748 14.287 10.108 17.5039 10.108C20.7209 10.108 23.3366 12.3748 23.3366 15.1628C23.3366 17.9507 20.7131 20.2176 17.5039 20.2176ZM28.935 7.06965C28.935 8.07791 27.9981 8.88316 26.8424 8.88316C25.679 8.88316 24.7499 8.07114 24.7499 7.06965C24.7499 6.06816 25.6868 5.25614 26.8424 5.25614C27.9981 5.25614 28.935 6.06816 28.935 7.06965ZM34.877 8.91023C34.7443 6.48093 34.104 4.32908 32.0505 2.55617C30.0047 0.783261 27.5218 0.228381 24.7186 0.106578C21.8296 -0.0355259 13.1704 -0.0355259 10.2814 0.106578C7.48606 0.221614 5.00307 0.776494 2.94953 2.5494C0.895985 4.32231 0.263525 6.47417 0.122978 8.90346C-0.0409927 11.4072 -0.0409927 18.9116 0.122978 21.4153C0.255717 23.8446 0.895985 25.9965 2.94953 27.7694C5.00307 29.5423 7.47825 30.0972 10.2814 30.219C13.1704 30.3611 21.8296 30.3611 24.7186 30.219C27.5218 30.1039 30.0047 29.5491 32.0505 27.7694C34.0962 25.9965 34.7365 23.8446 34.877 21.4153C35.041 18.9116 35.041 11.414 34.877 8.91023ZM31.1447 24.1018C30.5357 25.4281 29.3567 26.4499 27.8185 26.9844C25.5151 27.7762 20.0494 27.5934 17.5039 27.5934C14.9585 27.5934 9.48494 27.7694 7.18935 26.9844C5.65895 26.4566 4.47992 25.4348 3.86308 24.1018C2.94953 22.1055 3.16035 17.3688 3.16035 15.1628C3.16035 12.9568 2.95733 8.21324 3.86308 6.22379C4.47211 4.89749 5.65114 3.8757 7.18935 3.34112C9.49275 2.5494 14.9585 2.73211 17.5039 2.73211C20.0494 2.73211 25.5229 2.55617 27.8185 3.34112C29.3489 3.86894 30.5279 4.89073 31.1447 6.22379C32.0583 8.22001 31.8475 12.9568 31.8475 15.1628C31.8475 17.3688 32.0583 22.1123 31.1447 24.1018Z" fill="#EA5913"/>
</svg>
